<svg width="88" height="49" viewBox="0 0 88 49" fill="none" xmlns="http://www.w3.org/2000/svg">
<path fill-rule="evenodd" clip-rule="evenodd" d="M44 5C41.2375 5 39 7.2375 39 10C39 12.7625 41.2375 15 44 15C46.7625 15 49 12.7625 49 10C49 7.2375 46.7625 5 44 5ZM46.625 10C46.625 8.55 45.45 7.375 44 7.375C42.55 7.375 41.375 8.55 41.375 10C41.375 11.45 42.55 12.625 44 12.625C45.45 12.625 46.625 11.45 46.625 10ZM51.625 21.25C51.625 20.45 47.7125 18.625 44 18.625C40.2875 18.625 36.375 20.45 36.375 21.25V22.625H51.625V21.25ZM34 21.25C34 17.925 40.6625 16.25 44 16.25C47.3375 16.25 54 17.925 54 21.25V25H34V21.25Z" fill="black"/>
<path d="M4.37988 40.2466C3.17383 39.8999 2.29492 39.4751 1.74316 38.9722C1.19629 38.4644 0.922852 37.8394 0.922852 37.0972C0.922852 36.2573 1.25732 35.564 1.92627 35.0171C2.6001 34.4653 3.47412 34.1895 4.54834 34.1895C5.28076 34.1895 5.93262 34.3311 6.50391 34.6143C7.08008 34.8975 7.52441 35.2881 7.83691 35.7861C8.1543 36.2842 8.31299 36.8286 8.31299 37.4194H6.89941C6.89941 36.7749 6.69434 36.2695 6.28418 35.9033C5.87402 35.5322 5.29541 35.3467 4.54834 35.3467C3.85498 35.3467 3.31299 35.5005 2.92236 35.8081C2.53662 36.1108 2.34375 36.5332 2.34375 37.0752C2.34375 37.5098 2.52686 37.8784 2.89307 38.1812C3.26416 38.479 3.8916 38.7524 4.77539 39.0015C5.66406 39.2505 6.35742 39.5264 6.85547 39.8291C7.3584 40.127 7.72949 40.4761 7.96875 40.8765C8.21289 41.2769 8.33496 41.748 8.33496 42.29C8.33496 43.1543 7.99805 43.8477 7.32422 44.3701C6.65039 44.8877 5.74951 45.1465 4.62158 45.1465C3.88916 45.1465 3.20557 45.0073 2.5708 44.729C1.93604 44.4458 1.44531 44.0601 1.09863 43.5718C0.756836 43.0835 0.585938 42.5293 0.585938 41.9092H1.99951C1.99951 42.5537 2.23633 43.064 2.70996 43.4399C3.18848 43.811 3.82568 43.9966 4.62158 43.9966C5.36377 43.9966 5.93262 43.8452 6.32812 43.5425C6.72363 43.2397 6.92139 42.8271 6.92139 42.3047C6.92139 41.7822 6.73828 41.3794 6.37207 41.0962C6.00586 40.8081 5.3418 40.5249 4.37988 40.2466ZM13.2202 45.1465C12.146 45.1465 11.272 44.7949 10.5981 44.0918C9.92432 43.3838 9.5874 42.439 9.5874 41.2573V41.0083C9.5874 40.2222 9.73633 39.5215 10.0342 38.9062C10.3369 38.2861 10.7568 37.8027 11.2939 37.4561C11.8359 37.1045 12.4219 36.9287 13.0518 36.9287C14.082 36.9287 14.8828 37.2681 15.4541 37.9468C16.0254 38.6255 16.311 39.5972 16.311 40.8618V41.4258H10.9424C10.9619 42.207 11.189 42.8394 11.6235 43.3228C12.063 43.8013 12.6196 44.0405 13.2935 44.0405C13.772 44.0405 14.1772 43.9429 14.5093 43.7476C14.8413 43.5522 15.1318 43.2935 15.3809 42.9712L16.2085 43.6157C15.5444 44.6362 14.5483 45.1465 13.2202 45.1465ZM13.0518 38.042C12.5049 38.042 12.0459 38.2422 11.6748 38.6426C11.3037 39.0381 11.0742 39.5947 10.9863 40.3125H14.9561V40.21C14.917 39.5215 14.7314 38.9893 14.3994 38.6133C14.0674 38.2324 13.6182 38.042 13.0518 38.042ZM24.7852 44.0405C25.2686 44.0405 25.6909 43.894 26.0522 43.6011C26.4136 43.3081 26.6138 42.9419 26.6528 42.5024H27.9346C27.9102 42.9565 27.7539 43.3887 27.4658 43.7988C27.1777 44.209 26.792 44.5361 26.3086 44.7803C25.8301 45.0244 25.3223 45.1465 24.7852 45.1465C23.7061 45.1465 22.8467 44.7876 22.207 44.0698C21.5723 43.3472 21.2549 42.3608 21.2549 41.1108V40.8838C21.2549 40.1123 21.3965 39.4263 21.6797 38.8257C21.9629 38.2251 22.3682 37.7588 22.8955 37.4268C23.4277 37.0947 24.0552 36.9287 24.7778 36.9287C25.6665 36.9287 26.4038 37.1948 26.9897 37.7271C27.5806 38.2593 27.8955 38.9502 27.9346 39.7998H26.6528C26.6138 39.2871 26.4185 38.8672 26.0669 38.54C25.7202 38.208 25.2905 38.042 24.7778 38.042C24.0894 38.042 23.5547 38.291 23.1738 38.7891C22.7979 39.2822 22.6099 39.9976 22.6099 40.9351V41.1914C22.6099 42.1045 22.7979 42.8076 23.1738 43.3008C23.5498 43.7939 24.0869 44.0405 24.7852 44.0405ZM29.0991 40.9644C29.0991 40.188 29.2505 39.4897 29.5532 38.8696C29.8608 38.2495 30.2856 37.771 30.8276 37.4341C31.3745 37.0972 31.9971 36.9287 32.6953 36.9287C33.7744 36.9287 34.646 37.3022 35.3101 38.0493C35.979 38.7964 36.3135 39.79 36.3135 41.0303V41.1255C36.3135 41.897 36.1646 42.5903 35.8667 43.2056C35.5737 43.8159 35.1514 44.292 34.5996 44.6338C34.0527 44.9756 33.4229 45.1465 32.71 45.1465C31.6357 45.1465 30.7642 44.7729 30.0952 44.0259C29.4312 43.2788 29.0991 42.29 29.0991 41.0596V40.9644ZM30.4614 41.1255C30.4614 42.0044 30.6641 42.71 31.0693 43.2422C31.4795 43.7744 32.0264 44.0405 32.71 44.0405C33.3984 44.0405 33.9453 43.772 34.3506 43.2349C34.7559 42.6929 34.9585 41.936 34.9585 40.9644C34.9585 40.0952 34.751 39.3921 34.3359 38.855C33.9258 38.313 33.3789 38.042 32.6953 38.042C32.0264 38.042 31.4868 38.3081 31.0767 38.8403C30.6665 39.3726 30.4614 40.1343 30.4614 41.1255ZM39.2944 37.0752L39.3384 38.0713C39.9438 37.3096 40.7349 36.9287 41.7114 36.9287C43.3862 36.9287 44.231 37.8735 44.2456 39.7632V45H42.8906V39.7559C42.8857 39.1846 42.7539 38.7622 42.4951 38.4888C42.2412 38.2153 41.8433 38.0786 41.3013 38.0786C40.8618 38.0786 40.4761 38.1958 40.144 38.4302C39.812 38.6646 39.5532 38.9722 39.3677 39.353V45H38.0127V37.0752H39.2944ZM47.5708 37.0752L47.6147 38.0713C48.2202 37.3096 49.0112 36.9287 49.9878 36.9287C51.6626 36.9287 52.5073 37.8735 52.522 39.7632V45H51.167V39.7559C51.1621 39.1846 51.0303 38.7622 50.7715 38.4888C50.5176 38.2153 50.1196 38.0786 49.5776 38.0786C49.1382 38.0786 48.7524 38.1958 48.4204 38.4302C48.0884 38.6646 47.8296 38.9722 47.644 39.353V45H46.2891V37.0752H47.5708ZM57.854 45.1465C56.7798 45.1465 55.9058 44.7949 55.2319 44.0918C54.5581 43.3838 54.2212 42.439 54.2212 41.2573V41.0083C54.2212 40.2222 54.3701 39.5215 54.668 38.9062C54.9707 38.2861 55.3906 37.8027 55.9277 37.4561C56.4697 37.1045 57.0557 36.9287 57.6855 36.9287C58.7158 36.9287 59.5166 37.2681 60.0879 37.9468C60.6592 38.6255 60.9448 39.5972 60.9448 40.8618V41.4258H55.5762C55.5957 42.207 55.8228 42.8394 56.2573 43.3228C56.6968 43.8013 57.2534 44.0405 57.9272 44.0405C58.4058 44.0405 58.811 43.9429 59.1431 43.7476C59.4751 43.5522 59.7656 43.2935 60.0146 42.9712L60.8423 43.6157C60.1782 44.6362 59.1821 45.1465 57.854 45.1465ZM57.6855 38.042C57.1387 38.042 56.6797 38.2422 56.3086 38.6426C55.9375 39.0381 55.708 39.5947 55.6201 40.3125H59.5898V40.21C59.5508 39.5215 59.3652 38.9893 59.0332 38.6133C58.7012 38.2324 58.252 38.042 57.6855 38.042ZM65.6982 44.0405C66.1816 44.0405 66.604 43.894 66.9653 43.6011C67.3267 43.3081 67.5269 42.9419 67.5659 42.5024H68.8477C68.8232 42.9565 68.667 43.3887 68.3789 43.7988C68.0908 44.209 67.7051 44.5361 67.2217 44.7803C66.7432 45.0244 66.2354 45.1465 65.6982 45.1465C64.6191 45.1465 63.7598 44.7876 63.1201 44.0698C62.4854 43.3472 62.168 42.3608 62.168 41.1108V40.8838C62.168 40.1123 62.3096 39.4263 62.5928 38.8257C62.876 38.2251 63.2812 37.7588 63.8086 37.4268C64.3408 37.0947 64.9683 36.9287 65.6909 36.9287C66.5796 36.9287 67.3169 37.1948 67.9028 37.7271C68.4937 38.2593 68.8086 38.9502 68.8477 39.7998H67.5659C67.5269 39.2871 67.3315 38.8672 66.98 38.54C66.6333 38.208 66.2036 38.042 65.6909 38.042C65.0024 38.042 64.4678 38.291 64.0869 38.7891C63.7109 39.2822 63.5229 39.9976 63.5229 40.9351V41.1914C63.5229 42.1045 63.7109 42.8076 64.0869 43.3008C64.4629 43.7939 65 44.0405 65.6982 44.0405ZM72.2095 35.1562V37.0752H73.689V38.1226H72.2095V43.0371C72.2095 43.3545 72.2754 43.5938 72.4072 43.7549C72.5391 43.9111 72.7637 43.9893 73.0811 43.9893C73.2373 43.9893 73.4521 43.96 73.7256 43.9014V45C73.3691 45.0977 73.0225 45.1465 72.6855 45.1465C72.0801 45.1465 71.6235 44.9634 71.3159 44.5972C71.0083 44.231 70.8545 43.7109 70.8545 43.0371V38.1226H69.4116V37.0752H70.8545V35.1562H72.2095ZM78.5669 45.1465C77.4927 45.1465 76.6187 44.7949 75.9448 44.0918C75.271 43.3838 74.9341 42.439 74.9341 41.2573V41.0083C74.9341 40.2222 75.083 39.5215 75.3809 38.9062C75.6836 38.2861 76.1035 37.8027 76.6406 37.4561C77.1826 37.1045 77.7686 36.9287 78.3984 36.9287C79.4287 36.9287 80.2295 37.2681 80.8008 37.9468C81.3721 38.6255 81.6577 39.5972 81.6577 40.8618V41.4258H76.2891C76.3086 42.207 76.5356 42.8394 76.9702 43.3228C77.4097 43.8013 77.9663 44.0405 78.6401 44.0405C79.1187 44.0405 79.5239 43.9429 79.856 43.7476C80.188 43.5522 80.4785 43.2935 80.7275 42.9712L81.5552 43.6157C80.8911 44.6362 79.895 45.1465 78.5669 45.1465ZM78.3984 38.042C77.8516 38.042 77.3926 38.2422 77.0215 38.6426C76.6504 39.0381 76.4209 39.5947 76.333 40.3125H80.3027V40.21C80.2637 39.5215 80.0781 38.9893 79.7461 38.6133C79.4141 38.2324 78.9648 38.042 78.3984 38.042ZM87.063 38.291C86.8579 38.2568 86.6357 38.2397 86.3965 38.2397C85.5078 38.2397 84.9048 38.6182 84.5874 39.375V45H83.2324V37.0752H84.5508L84.5728 37.9907C85.0171 37.2827 85.647 36.9287 86.4624 36.9287C86.7261 36.9287 86.9263 36.9629 87.063 37.0312V38.291Z" fill="black"/>
</svg>
