<svg width="104" height="49" viewBox="0 0 104 49" fill="none" xmlns="http://www.w3.org/2000/svg">
<path fill-rule="evenodd" clip-rule="evenodd" d="M52 5C49.2375 5 47 7.2375 47 10C47 12.7625 49.2375 15 52 15C54.7625 15 57 12.7625 57 10C57 7.2375 54.7625 5 52 5ZM54.625 10C54.625 8.55 53.45 7.375 52 7.375C50.55 7.375 49.375 8.55 49.375 10C49.375 11.45 50.55 12.625 52 12.625C53.45 12.625 54.625 11.45 54.625 10ZM59.625 21.25C59.625 20.45 55.7125 18.625 52 18.625C48.2875 18.625 44.375 20.45 44.375 21.25V22.625H59.625V21.25ZM42 21.25C42 17.925 48.6625 16.25 52 16.25C55.3375 16.25 62 17.925 62 21.25V25H42V21.25Z" fill="black"/>
<path d="M4.37988 40.2466C3.17383 39.8999 2.29492 39.4751 1.74316 38.9722C1.19629 38.4644 0.922852 37.8394 0.922852 37.0972C0.922852 36.2573 1.25732 35.564 1.92627 35.0171C2.6001 34.4653 3.47412 34.1895 4.54834 34.1895C5.28076 34.1895 5.93262 34.3311 6.50391 34.6143C7.08008 34.8975 7.52441 35.2881 7.83691 35.7861C8.1543 36.2842 8.31299 36.8286 8.31299 37.4194H6.89941C6.89941 36.7749 6.69434 36.2695 6.28418 35.9033C5.87402 35.5322 5.29541 35.3467 4.54834 35.3467C3.85498 35.3467 3.31299 35.5005 2.92236 35.8081C2.53662 36.1108 2.34375 36.5332 2.34375 37.0752C2.34375 37.5098 2.52686 37.8784 2.89307 38.1812C3.26416 38.479 3.8916 38.7524 4.77539 39.0015C5.66406 39.2505 6.35742 39.5264 6.85547 39.8291C7.3584 40.127 7.72949 40.4761 7.96875 40.8765C8.21289 41.2769 8.33496 41.748 8.33496 42.29C8.33496 43.1543 7.99805 43.8477 7.32422 44.3701C6.65039 44.8877 5.74951 45.1465 4.62158 45.1465C3.88916 45.1465 3.20557 45.0073 2.5708 44.729C1.93604 44.4458 1.44531 44.0601 1.09863 43.5718C0.756836 43.0835 0.585938 42.5293 0.585938 41.9092H1.99951C1.99951 42.5537 2.23633 43.064 2.70996 43.4399C3.18848 43.811 3.82568 43.9966 4.62158 43.9966C5.36377 43.9966 5.93262 43.8452 6.32812 43.5425C6.72363 43.2397 6.92139 42.8271 6.92139 42.3047C6.92139 41.7822 6.73828 41.3794 6.37207 41.0962C6.00586 40.8081 5.3418 40.5249 4.37988 40.2466ZM13.2202 45.1465C12.146 45.1465 11.272 44.7949 10.5981 44.0918C9.92432 43.3838 9.5874 42.439 9.5874 41.2573V41.0083C9.5874 40.2222 9.73633 39.5215 10.0342 38.9062C10.3369 38.2861 10.7568 37.8027 11.2939 37.4561C11.8359 37.1045 12.4219 36.9287 13.0518 36.9287C14.082 36.9287 14.8828 37.2681 15.4541 37.9468C16.0254 38.6255 16.311 39.5972 16.311 40.8618V41.4258H10.9424C10.9619 42.207 11.189 42.8394 11.6235 43.3228C12.063 43.8013 12.6196 44.0405 13.2935 44.0405C13.772 44.0405 14.1772 43.9429 14.5093 43.7476C14.8413 43.5522 15.1318 43.2935 15.3809 42.9712L16.2085 43.6157C15.5444 44.6362 14.5483 45.1465 13.2202 45.1465ZM13.0518 38.042C12.5049 38.042 12.0459 38.2422 11.6748 38.6426C11.3037 39.0381 11.0742 39.5947 10.9863 40.3125H14.9561V40.21C14.917 39.5215 14.7314 38.9893 14.3994 38.6133C14.0674 38.2324 13.6182 38.042 13.0518 38.042ZM21.2769 40.9717C21.2769 39.7559 21.5649 38.7793 22.1411 38.042C22.7173 37.2998 23.4717 36.9287 24.4043 36.9287C25.332 36.9287 26.0669 37.2461 26.6089 37.8809V33.75H27.9639V45H26.7188L26.6528 44.1504C26.1108 44.8145 25.3564 45.1465 24.3896 45.1465C23.4717 45.1465 22.7222 44.7705 22.1411 44.0186C21.5649 43.2666 21.2769 42.2852 21.2769 41.0742V40.9717ZM22.6318 41.1255C22.6318 42.0239 22.8174 42.7271 23.1885 43.2349C23.5596 43.7427 24.0723 43.9966 24.7266 43.9966C25.5859 43.9966 26.2134 43.6108 26.6089 42.8394V39.1992C26.2036 38.4521 25.5811 38.0786 24.7412 38.0786C24.0771 38.0786 23.5596 38.335 23.1885 38.8477C22.8174 39.3604 22.6318 40.1196 22.6318 41.1255ZM33.3618 45.1465C32.2876 45.1465 31.4136 44.7949 30.7397 44.0918C30.0659 43.3838 29.729 42.439 29.729 41.2573V41.0083C29.729 40.2222 29.8779 39.5215 30.1758 38.9062C30.4785 38.2861 30.8984 37.8027 31.4355 37.4561C31.9775 37.1045 32.5635 36.9287 33.1934 36.9287C34.2236 36.9287 35.0244 37.2681 35.5957 37.9468C36.167 38.6255 36.4526 39.5972 36.4526 40.8618V41.4258H31.084C31.1035 42.207 31.3306 42.8394 31.7651 43.3228C32.2046 43.8013 32.7612 44.0405 33.4351 44.0405C33.9136 44.0405 34.3188 43.9429 34.6509 43.7476C34.9829 43.5522 35.2734 43.2935 35.5225 42.9712L36.3501 43.6157C35.686 44.6362 34.6899 45.1465 33.3618 45.1465ZM33.1934 38.042C32.6465 38.042 32.1875 38.2422 31.8164 38.6426C31.4453 39.0381 31.2158 39.5947 31.1279 40.3125H35.0977V40.21C35.0586 39.5215 34.873 38.9893 34.541 38.6133C34.209 38.2324 33.7598 38.042 33.1934 38.042ZM33.8525 33.75H35.4932L33.5303 35.9033H32.439L33.8525 33.75ZM41.2061 44.0405C41.6895 44.0405 42.1118 43.894 42.4731 43.6011C42.8345 43.3081 43.0347 42.9419 43.0737 42.5024H44.3555C44.3311 42.9565 44.1748 43.3887 43.8867 43.7988C43.5986 44.209 43.2129 44.5361 42.7295 44.7803C42.251 45.0244 41.7432 45.1465 41.2061 45.1465C40.127 45.1465 39.2676 44.7876 38.6279 44.0698C37.9932 43.3472 37.6758 42.3608 37.6758 41.1108V40.8838C37.6758 40.1123 37.8174 39.4263 38.1006 38.8257C38.3838 38.2251 38.7891 37.7588 39.3164 37.4268C39.8486 37.0947 40.4761 36.9287 41.1987 36.9287C42.0874 36.9287 42.8247 37.1948 43.4106 37.7271C44.0015 38.2593 44.3164 38.9502 44.3555 39.7998H43.0737C43.0347 39.2871 42.8394 38.8672 42.4878 38.54C42.1411 38.208 41.7114 38.042 41.1987 38.042C40.5103 38.042 39.9756 38.291 39.5947 38.7891C39.2188 39.2822 39.0308 39.9976 39.0308 40.9351V41.1914C39.0308 42.1045 39.2188 42.8076 39.5947 43.3008C39.9707 43.7939 40.5078 44.0405 41.2061 44.0405ZM45.52 40.9644C45.52 40.188 45.6714 39.4897 45.9741 38.8696C46.2817 38.2495 46.7065 37.771 47.2485 37.4341C47.7954 37.0972 48.418 36.9287 49.1162 36.9287C50.1953 36.9287 51.0669 37.3022 51.731 38.0493C52.3999 38.7964 52.7344 39.79 52.7344 41.0303V41.1255C52.7344 41.897 52.5854 42.5903 52.2876 43.2056C51.9946 43.8159 51.5723 44.292 51.0205 44.6338C50.4736 44.9756 49.8438 45.1465 49.1309 45.1465C48.0566 45.1465 47.1851 44.7729 46.5161 44.0259C45.8521 43.2788 45.52 42.29 45.52 41.0596V40.9644ZM46.8823 41.1255C46.8823 42.0044 47.085 42.71 47.4902 43.2422C47.9004 43.7744 48.4473 44.0405 49.1309 44.0405C49.8193 44.0405 50.3662 43.772 50.7715 43.2349C51.1768 42.6929 51.3794 41.936 51.3794 40.9644C51.3794 40.0952 51.1719 39.3921 50.7568 38.855C50.3467 38.313 49.7998 38.042 49.1162 38.042C48.4473 38.042 47.9077 38.3081 47.4976 38.8403C47.0874 39.3726 46.8823 40.1343 46.8823 41.1255ZM55.7153 37.0752L55.7593 38.0713C56.3647 37.3096 57.1558 36.9287 58.1323 36.9287C59.8071 36.9287 60.6519 37.8735 60.6665 39.7632V45H59.3115V39.7559C59.3066 39.1846 59.1748 38.7622 58.916 38.4888C58.6621 38.2153 58.2642 38.0786 57.7222 38.0786C57.2827 38.0786 56.897 38.1958 56.5649 38.4302C56.2329 38.6646 55.9741 38.9722 55.7886 39.353V45H54.4336V37.0752H55.7153ZM63.9917 37.0752L64.0356 38.0713C64.6411 37.3096 65.4321 36.9287 66.4087 36.9287C68.0835 36.9287 68.9282 37.8735 68.9429 39.7632V45H67.5879V39.7559C67.583 39.1846 67.4512 38.7622 67.1924 38.4888C66.9385 38.2153 66.5405 38.0786 65.9985 38.0786C65.5591 38.0786 65.1733 38.1958 64.8413 38.4302C64.5093 38.6646 64.2505 38.9722 64.0649 39.353V45H62.71V37.0752H63.9917ZM74.2749 45.1465C73.2007 45.1465 72.3267 44.7949 71.6528 44.0918C70.979 43.3838 70.6421 42.439 70.6421 41.2573V41.0083C70.6421 40.2222 70.791 39.5215 71.0889 38.9062C71.3916 38.2861 71.8115 37.8027 72.3486 37.4561C72.8906 37.1045 73.4766 36.9287 74.1064 36.9287C75.1367 36.9287 75.9375 37.2681 76.5088 37.9468C77.0801 38.6255 77.3657 39.5972 77.3657 40.8618V41.4258H71.9971C72.0166 42.207 72.2437 42.8394 72.6782 43.3228C73.1177 43.8013 73.6743 44.0405 74.3481 44.0405C74.8267 44.0405 75.2319 43.9429 75.564 43.7476C75.896 43.5522 76.1865 43.2935 76.4355 42.9712L77.2632 43.6157C76.5991 44.6362 75.603 45.1465 74.2749 45.1465ZM74.1064 38.042C73.5596 38.042 73.1006 38.2422 72.7295 38.6426C72.3584 39.0381 72.1289 39.5947 72.041 40.3125H76.0107V40.21C75.9717 39.5215 75.7861 38.9893 75.4541 38.6133C75.1221 38.2324 74.6729 38.042 74.1064 38.042ZM82.1191 44.0405C82.6025 44.0405 83.0249 43.894 83.3862 43.6011C83.7476 43.3081 83.9478 42.9419 83.9868 42.5024H85.2686C85.2441 42.9565 85.0879 43.3887 84.7998 43.7988C84.5117 44.209 84.126 44.5361 83.6426 44.7803C83.1641 45.0244 82.6562 45.1465 82.1191 45.1465C81.04 45.1465 80.1807 44.7876 79.541 44.0698C78.9062 43.3472 78.5889 42.3608 78.5889 41.1108V40.8838C78.5889 40.1123 78.7305 39.4263 79.0137 38.8257C79.2969 38.2251 79.7021 37.7588 80.2295 37.4268C80.7617 37.0947 81.3892 36.9287 82.1118 36.9287C83.0005 36.9287 83.7378 37.1948 84.3237 37.7271C84.9146 38.2593 85.2295 38.9502 85.2686 39.7998H83.9868C83.9478 39.2871 83.7524 38.8672 83.4009 38.54C83.0542 38.208 82.6245 38.042 82.1118 38.042C81.4233 38.042 80.8887 38.291 80.5078 38.7891C80.1318 39.2822 79.9438 39.9976 79.9438 40.9351V41.1914C79.9438 42.1045 80.1318 42.8076 80.5078 43.3008C80.8838 43.7939 81.4209 44.0405 82.1191 44.0405ZM88.6304 35.1562V37.0752H90.1099V38.1226H88.6304V43.0371C88.6304 43.3545 88.6963 43.5938 88.8281 43.7549C88.96 43.9111 89.1846 43.9893 89.502 43.9893C89.6582 43.9893 89.873 43.96 90.1465 43.9014V45C89.79 45.0977 89.4434 45.1465 89.1064 45.1465C88.501 45.1465 88.0444 44.9634 87.7368 44.5972C87.4292 44.231 87.2754 43.7109 87.2754 43.0371V38.1226H85.8325V37.0752H87.2754V35.1562H88.6304ZM94.9878 45.1465C93.9136 45.1465 93.0396 44.7949 92.3657 44.0918C91.6919 43.3838 91.355 42.439 91.355 41.2573V41.0083C91.355 40.2222 91.5039 39.5215 91.8018 38.9062C92.1045 38.2861 92.5244 37.8027 93.0615 37.4561C93.6035 37.1045 94.1895 36.9287 94.8193 36.9287C95.8496 36.9287 96.6504 37.2681 97.2217 37.9468C97.793 38.6255 98.0786 39.5972 98.0786 40.8618V41.4258H92.71C92.7295 42.207 92.9565 42.8394 93.3911 43.3228C93.8306 43.8013 94.3872 44.0405 95.061 44.0405C95.5396 44.0405 95.9448 43.9429 96.2769 43.7476C96.6089 43.5522 96.8994 43.2935 97.1484 42.9712L97.9761 43.6157C97.312 44.6362 96.3159 45.1465 94.9878 45.1465ZM94.8193 38.042C94.2725 38.042 93.8135 38.2422 93.4424 38.6426C93.0713 39.0381 92.8418 39.5947 92.7539 40.3125H96.7236V40.21C96.6846 39.5215 96.499 38.9893 96.167 38.6133C95.835 38.2324 95.3857 38.042 94.8193 38.042ZM103.484 38.291C103.279 38.2568 103.057 38.2397 102.817 38.2397C101.929 38.2397 101.326 38.6182 101.008 39.375V45H99.6533V37.0752H100.972L100.994 37.9907C101.438 37.2827 102.068 36.9287 102.883 36.9287C103.147 36.9287 103.347 36.9629 103.484 37.0312V38.291Z" fill="black"/>
</svg>
