<svg width="160" height="46" viewBox="0 0 160 46" fill="none" xmlns="http://www.w3.org/2000/svg">
<path fill-rule="evenodd" clip-rule="evenodd" d="M29.9417 23.7584H31.2583L39.575 32.0917L37.0917 34.575L28.7583 26.2584V24.9417L28.3083 24.475C26.4083 26.1084 23.9417 27.0917 21.2583 27.0917C15.275 27.0917 10.425 22.2417 10.425 16.2584C10.425 10.275 15.275 5.42502 21.2583 5.42502C27.2417 5.42502 32.0917 10.275 32.0917 16.2584C32.0917 18.9417 31.1083 21.4084 29.475 23.3083L29.9417 23.7584ZM13.7583 16.2584C13.7583 20.4084 17.1083 23.7584 21.2583 23.7584C25.4083 23.7584 28.7583 20.4084 28.7583 16.2584C28.7583 12.1084 25.4083 8.75835 21.2583 8.75835C17.1083 8.75835 13.7583 12.1084 13.7583 16.2584Z" fill="black"/>
<path d="M61.1787 17.8232H58.1729V23H56.4766V10.2031H60.7129C62.1543 10.2031 63.2617 10.5312 64.0352 11.1875C64.8145 11.8438 65.2041 12.7988 65.2041 14.0527C65.2041 14.8496 64.9873 15.5439 64.5537 16.1357C64.126 16.7275 63.5283 17.1699 62.7607 17.4629L65.7666 22.8945V23H63.9561L61.1787 17.8232ZM58.1729 16.4434H60.7656C61.6035 16.4434 62.2686 16.2266 62.7607 15.793C63.2588 15.3594 63.5078 14.7793 63.5078 14.0527C63.5078 13.2617 63.2705 12.6553 62.7959 12.2334C62.3271 11.8115 61.6475 11.5977 60.7568 11.5918H58.1729V16.4434ZM71.2686 23.1758C69.9795 23.1758 68.9307 22.7539 68.1221 21.9102C67.3135 21.0605 66.9092 19.9268 66.9092 18.5088V18.21C66.9092 17.2666 67.0879 16.4258 67.4453 15.6875C67.8086 14.9434 68.3125 14.3633 68.957 13.9473C69.6074 13.5254 70.3105 13.3145 71.0664 13.3145C72.3027 13.3145 73.2637 13.7217 73.9492 14.5361C74.6348 15.3506 74.9775 16.5166 74.9775 18.0342V18.7109H68.5352C68.5586 19.6484 68.8311 20.4072 69.3525 20.9873C69.8799 21.5615 70.5479 21.8486 71.3564 21.8486C71.9307 21.8486 72.417 21.7314 72.8154 21.4971C73.2139 21.2627 73.5625 20.9521 73.8613 20.5654L74.8545 21.3389C74.0576 22.5635 72.8623 23.1758 71.2686 23.1758ZM71.0664 14.6504C70.4102 14.6504 69.8594 14.8906 69.4141 15.3711C68.9688 15.8457 68.6934 16.5137 68.5879 17.375H73.3516V17.252C73.3047 16.4258 73.082 15.7871 72.6836 15.3359C72.2852 14.8789 71.7461 14.6504 71.0664 14.6504ZM80.6816 21.8486C81.2617 21.8486 81.7686 21.6729 82.2021 21.3213C82.6357 20.9697 82.876 20.5303 82.9229 20.0029H84.4609C84.4316 20.5479 84.2441 21.0664 83.8984 21.5586C83.5527 22.0508 83.0898 22.4434 82.5098 22.7363C81.9355 23.0293 81.3262 23.1758 80.6816 23.1758C79.3867 23.1758 78.3555 22.7451 77.5879 21.8838C76.8262 21.0166 76.4453 19.833 76.4453 18.333V18.0605C76.4453 17.1348 76.6152 16.3115 76.9551 15.5908C77.2949 14.8701 77.7812 14.3105 78.4141 13.9121C79.0527 13.5137 79.8057 13.3145 80.6729 13.3145C81.7393 13.3145 82.624 13.6338 83.3271 14.2725C84.0361 14.9111 84.4141 15.7402 84.4609 16.7598H82.9229C82.876 16.1445 82.6416 15.6406 82.2197 15.248C81.8037 14.8496 81.2881 14.6504 80.6729 14.6504C79.8467 14.6504 79.2051 14.9492 78.748 15.5469C78.2969 16.1387 78.0713 16.9971 78.0713 18.1221V18.4297C78.0713 19.5254 78.2969 20.3691 78.748 20.9609C79.1992 21.5527 79.8438 21.8486 80.6816 21.8486ZM87.915 14.6416C88.6357 13.7568 89.5732 13.3145 90.7275 13.3145C92.7373 13.3145 93.751 14.4482 93.7686 16.7158V23H92.1426V16.707C92.1367 16.0215 91.9785 15.5146 91.668 15.1865C91.3633 14.8584 90.8857 14.6943 90.2354 14.6943C89.708 14.6943 89.2451 14.835 88.8467 15.1162C88.4482 15.3975 88.1377 15.7666 87.915 16.2236V23H86.2891V9.5H87.915V14.6416ZM100.149 23.1758C98.8604 23.1758 97.8115 22.7539 97.0029 21.9102C96.1943 21.0605 95.79 19.9268 95.79 18.5088V18.21C95.79 17.2666 95.9688 16.4258 96.3262 15.6875C96.6895 14.9434 97.1934 14.3633 97.8379 13.9473C98.4883 13.5254 99.1914 13.3145 99.9473 13.3145C101.184 13.3145 102.145 13.7217 102.83 14.5361C103.516 15.3506 103.858 16.5166 103.858 18.0342V18.7109H97.416C97.4395 19.6484 97.7119 20.4072 98.2334 20.9873C98.7607 21.5615 99.4287 21.8486 100.237 21.8486C100.812 21.8486 101.298 21.7314 101.696 21.4971C102.095 21.2627 102.443 20.9521 102.742 20.5654L103.735 21.3389C102.938 22.5635 101.743 23.1758 100.149 23.1758ZM99.9473 14.6504C99.291 14.6504 98.7402 14.8906 98.2949 15.3711C97.8496 15.8457 97.5742 16.5137 97.4688 17.375H102.232V17.252C102.186 16.4258 101.963 15.7871 101.564 15.3359C101.166 14.8789 100.627 14.6504 99.9473 14.6504ZM110.345 14.9492C110.099 14.9082 109.832 14.8877 109.545 14.8877C108.479 14.8877 107.755 15.3418 107.374 16.25V23H105.748V13.4902H107.33L107.356 14.5889C107.89 13.7393 108.646 13.3145 109.624 13.3145C109.94 13.3145 110.181 13.3555 110.345 13.4375V14.9492ZM115.486 21.8486C116.066 21.8486 116.573 21.6729 117.007 21.3213C117.44 20.9697 117.681 20.5303 117.728 20.0029H119.266C119.236 20.5479 119.049 21.0664 118.703 21.5586C118.357 22.0508 117.895 22.4434 117.314 22.7363C116.74 23.0293 116.131 23.1758 115.486 23.1758C114.191 23.1758 113.16 22.7451 112.393 21.8838C111.631 21.0166 111.25 19.833 111.25 18.333V18.0605C111.25 17.1348 111.42 16.3115 111.76 15.5908C112.1 14.8701 112.586 14.3105 113.219 13.9121C113.857 13.5137 114.61 13.3145 115.478 13.3145C116.544 13.3145 117.429 13.6338 118.132 14.2725C118.841 14.9111 119.219 15.7402 119.266 16.7598H117.728C117.681 16.1445 117.446 15.6406 117.024 15.248C116.608 14.8496 116.093 14.6504 115.478 14.6504C114.651 14.6504 114.01 14.9492 113.553 15.5469C113.102 16.1387 112.876 16.9971 112.876 18.1221V18.4297C112.876 19.5254 113.102 20.3691 113.553 20.9609C114.004 21.5527 114.648 21.8486 115.486 21.8486ZM122.72 14.6416C123.44 13.7568 124.378 13.3145 125.532 13.3145C127.542 13.3145 128.556 14.4482 128.573 16.7158V23H126.947V16.707C126.941 16.0215 126.783 15.5146 126.473 15.1865C126.168 14.8584 125.69 14.6943 125.04 14.6943C124.513 14.6943 124.05 14.835 123.651 15.1162C123.253 15.3975 122.942 15.7666 122.72 16.2236V23H121.094V9.5H122.72V14.6416ZM134.954 23.1758C133.665 23.1758 132.616 22.7539 131.808 21.9102C130.999 21.0605 130.595 19.9268 130.595 18.5088V18.21C130.595 17.2666 130.773 16.4258 131.131 15.6875C131.494 14.9434 131.998 14.3633 132.643 13.9473C133.293 13.5254 133.996 13.3145 134.752 13.3145C135.988 13.3145 136.949 13.7217 137.635 14.5361C138.32 15.3506 138.663 16.5166 138.663 18.0342V18.7109H132.221C132.244 19.6484 132.517 20.4072 133.038 20.9873C133.565 21.5615 134.233 21.8486 135.042 21.8486C135.616 21.8486 136.103 21.7314 136.501 21.4971C136.899 21.2627 137.248 20.9521 137.547 20.5654L138.54 21.3389C137.743 22.5635 136.548 23.1758 134.954 23.1758ZM134.752 14.6504C134.096 14.6504 133.545 14.8906 133.1 15.3711C132.654 15.8457 132.379 16.5137 132.273 17.375H137.037V17.252C136.99 16.4258 136.768 15.7871 136.369 15.3359C135.971 14.8789 135.432 14.6504 134.752 14.6504ZM145.149 14.9492C144.903 14.9082 144.637 14.8877 144.35 14.8877C143.283 14.8877 142.56 15.3418 142.179 16.25V23H140.553V13.4902H142.135L142.161 14.5889C142.694 13.7393 143.45 13.3145 144.429 13.3145C144.745 13.3145 144.985 13.3555 145.149 13.4375V14.9492Z" fill="black"/>
<rect y="42" width="160" height="4" fill="#F56B2A"/>
</svg>
